<svg width="24" height="24" viewBox="0 0 24 24" xmlns="http://www.w3.org/2000/svg">
<path d="M18.9979 10C20.6558 10 22 11.343 22 13C22 14.5978 20.7501 15.9037 19.1743 15.9949L18.9672 15.9998L18.8655 16.0067L17.6997 16.007C17.8905 16.3801 17.9982 16.8022 17.9982 17.2496C17.9982 18.7792 16.8455 20.0056 15.3232 20.0056C13.8182 20.0056 12.9076 19.1239 12.6628 17.9027C12.5814 17.4966 12.8446 17.1013 13.2508 17.0199C13.6569 16.9385 14.0521 17.2018 14.1336 17.6079C14.2469 18.1732 14.5901 18.5056 15.3232 18.5056C15.9955 18.5056 16.4982 17.9708 16.4982 17.2496C16.4982 16.5614 15.9303 16 15.2255 16L2.73663 16.0067C2.32242 16.0067 1.98663 15.6709 1.98663 15.2567C1.98663 14.877 2.26879 14.5632 2.63486 14.5135L2.73663 14.5067L15.1237 14.5068L15.2255 14.5C15.2896 14.5 15.3533 14.5022 15.4163 14.5064L18.888 14.508L18.9424 14.502L19.1426 14.4931C19.9044 14.4204 20.5 13.7796 20.5 13C20.5 12.1717 19.8277 11.5 18.9979 11.5C18.2493 11.5 17.6239 12.0488 17.5133 12.7705L17.4857 13.0089C17.4141 13.3713 17.0839 13.634 16.7048 13.6112C16.2914 13.5862 15.9764 13.2309 16.0014 12.8174C16.0966 11.2382 17.4083 10 18.9979 10ZM12.0003 12H2.75561C2.3414 12 2.00561 11.6642 2.00561 11.25C2.00561 10.8703 2.28777 10.5565 2.65384 10.5068L2.75561 10.5H12.0003C13.3812 10.5 14.5006 9.38057 14.5006 7.99968C14.5006 6.6188 13.3812 5.49937 12.0003 5.49937C10.6194 5.49937 9.5 6.6188 9.5 7.99968C9.5 8.4139 9.16421 8.74968 8.75 8.74968C8.33579 8.74968 8 8.4139 8 7.99968C8 5.79037 9.791 3.99937 12.0003 3.99937C14.2096 3.99937 16.0006 5.79037 16.0006 7.99968C16.0006 10.1349 14.3277 11.8794 12.2211 11.994L12.0003 12H2.75561H12.0003Z"/>
</svg>
