<svg width="24" height="24" viewBox="0 0 24 24" xmlns="http://www.w3.org/2000/svg">
<path d="M7.74488 19.5H16.2462C16.6601 19.5 16.9955 19.8358 16.9955 20.25C16.9955 20.6297 16.7136 20.9435 16.3479 20.9932L16.2462 21H7.74488C7.33103 21 6.99555 20.6642 6.99555 20.25C6.99555 19.8703 7.27745 19.5565 7.6432 19.5068L7.74488 19.5H16.2462H7.74488ZM4.75 16.5192H19.25C19.6642 16.5192 20 16.855 20 17.2692C20 17.6489 19.7178 17.9627 19.3518 18.0124L19.25 18.0192H4.75C4.33578 18.0192 4 17.6834 4 17.2692C4 16.8895 4.28215 16.5757 4.64822 16.5261L4.75 16.5192ZM12 3.00482C15.1685 3.00482 16.966 5.10211 17.2274 7.63495L17.3074 7.63495C19.3464 7.63495 20.9994 9.28367 20.9994 11.3175C20.9994 13.3513 19.3464 15 17.3074 15H6.69263C4.65355 15 3.00055 13.3513 3.00055 11.3175C3.00055 9.28367 4.65355 7.63495 6.69265 7.63495L6.7726 7.63495C7.03553 5.08546 8.83146 3.00482 12 3.00482ZM12 4.50241C9.92867 4.50241 8.12329 6.13565 8.12329 8.39163C8.12329 8.74908 7.80434 9.02958 7.43912 9.02956L6.74857 9.02954C5.48758 9.02954 4.46534 10.0308 4.46534 11.266C4.46534 12.5011 5.48758 13.5024 6.74857 13.5024H17.2514C18.5124 13.5024 19.5346 12.5011 19.5346 11.266C19.5346 10.0308 18.5124 9.02954 17.2514 9.02954L16.5609 9.02956C16.1957 9.02958 15.8767 8.74908 15.8767 8.39163C15.8767 6.10671 14.0713 4.50241 12 4.50241Z"/>
</svg>
