<svg width="24" height="24" viewBox="0 0 24 24" xmlns="http://www.w3.org/2000/svg">
<path d="M20.0258 17.0012C17.2639 21.7849 11.1471 23.4239 6.3634 20.6621C5.06068 19.9099 3.964 18.8925 3.12872 17.6795C2.84945 17.274 3.0301 16.7139 3.49369 16.548C7.26112 15.1996 9.27892 13.637 10.4498 11.4019C11.6825 9.04893 12.001 6.47147 11.1387 2.93846C11.0195 2.44993 11.4053 1.98476 11.9075 2.01171C13.4645 2.09524 14.9856 2.54248 16.3649 3.33888C21.1486 6.10073 22.7876 12.2176 20.0258 17.0012ZM11.7785 12.098C10.5272 14.4866 8.46706 16.197 4.96104 17.5969C5.5693 18.2927 6.29275 18.8892 7.1134 19.363C11.1796 21.7107 16.3791 20.3175 18.7267 16.2512C21.0744 12.185 19.6812 6.98555 15.6149 4.63791C14.7379 4.13155 13.7951 3.79153 12.8228 3.62238C13.4699 7.00637 13.0525 9.66607 11.7785 12.098Z"/>
</svg>
