<svg width="24" height="24" viewBox="0 0 24 24" xmlns="http://www.w3.org/2000/svg">
<path d="M13.0022 8.00686C16.1707 8.00686 17.9681 10.1042 18.2296 12.637L18.3095 12.637C20.3486 12.637 22.0016 14.2857 22.0016 16.3195C22.0016 18.3533 20.3486 20.002 18.3095 20.002H7.69479C5.65571 20.002 4.00271 18.3533 4.00271 16.3195C4.00271 14.2857 5.65571 12.637 7.69482 12.637L7.77476 12.637C8.0377 10.0875 9.83363 8.00686 13.0022 8.00686ZM13.0022 9.50445C10.9308 9.50445 9.12545 11.1377 9.12545 13.3937C9.12545 13.7511 8.8065 14.0316 8.44129 14.0316L7.75073 14.0316C6.48974 14.0316 5.4675 15.0329 5.4675 16.268C5.4675 17.5032 6.48974 18.5045 7.75073 18.5045H18.2536C19.5146 18.5045 20.5368 17.5032 20.5368 16.268C20.5368 15.0329 19.5146 14.0316 18.2536 14.0316L17.563 14.0316C17.1978 14.0316 16.8789 13.7511 16.8789 13.3937C16.8789 11.1088 15.0735 9.50445 13.0022 9.50445ZM4.36778 12.1623C4.51309 12.5131 4.3725 12.911 4.05329 13.097L3.96189 13.1422L3.03562 13.5259C2.65294 13.6844 2.21421 13.5027 2.0557 13.12C1.9104 12.7692 2.05099 12.3713 2.37019 12.1853L2.4616 12.1401L3.38786 11.7564C3.77055 11.5979 4.20927 11.7796 4.36778 12.1623ZM10.8548 7.32909L10.6832 7.38667C10.1491 7.57535 9.66039 7.83074 9.22291 8.14475C8.68948 7.97088 8.09319 7.97922 7.5337 8.21097C6.28791 8.727 5.69632 10.1552 6.21234 11.401C6.27295 11.5473 6.34614 11.6846 6.43014 11.8122C5.93793 11.9496 5.47697 12.168 5.06361 12.4515C4.97479 12.3013 4.89559 12.1418 4.82652 11.975C3.99348 9.96389 4.94852 7.6582 6.95968 6.82515C8.30198 6.26916 9.77547 6.50968 10.8548 7.32909ZM2.94104 7.36018L3.04654 7.39507L3.97281 7.77875C4.35549 7.93726 4.53722 8.37599 4.3787 8.75867C4.2346 9.10656 3.85892 9.28838 3.50429 9.19947L3.39878 9.16457L2.47252 8.78089C2.08983 8.62238 1.90811 8.18366 2.06662 7.80097C2.21072 7.45308 2.58641 7.27126 2.94104 7.36018ZM6.75626 4.37375L6.80153 4.46515L7.1852 5.39142C7.34372 5.7741 7.16199 6.21283 6.77931 6.37134C6.42851 6.51665 6.03063 6.37605 5.84466 6.05685L5.79939 5.96545L5.41571 5.03918C5.2572 4.6565 5.43893 4.21777 5.82161 4.05926C6.1724 3.91395 6.57029 4.05455 6.75626 4.37375ZM11.1096 4.05525C11.4575 4.19935 11.6393 4.57503 11.5504 4.92966L11.5155 5.03517L11.1318 5.96143C10.9733 6.34412 10.5346 6.52584 10.1519 6.36733C9.80401 6.22323 9.6222 5.84754 9.71111 5.49291L9.74601 5.38741L10.1297 4.46114C10.2882 4.07846 10.7269 3.89673 11.1096 4.05525Z"/>
</svg>
