<svg width="24" height="24" viewBox="0 0 24 24" xmlns="http://www.w3.org/2000/svg">
<path d="M12 4.00069C15.1685 4.00069 16.966 6.09798 17.2274 8.63082L17.3074 8.63082C19.3464 8.63082 20.9994 10.2795 20.9994 12.3133C20.9994 14.3471 19.3464 15.9959 17.3074 15.9959L16.7245 15.9957L15.1428 18.6302C14.9357 18.9889 14.477 19.1118 14.1183 18.9047C13.7895 18.7148 13.6588 18.3136 13.7989 17.9717L13.8438 17.8802L14.9925 15.9957H12.8565L11.2746 18.6302C11.0675 18.9889 10.6088 19.1118 10.2501 18.9047C9.92129 18.7148 9.79061 18.3136 9.93064 17.9717L9.9756 17.8802L11.1245 15.9957H8.98755L7.40643 18.6302C7.19932 18.9889 6.74063 19.1118 6.38191 18.9047C6.05309 18.7148 5.92241 18.3136 6.06244 17.9717L6.10739 17.8802L7.25555 15.9957L6.69263 15.9959C4.65355 15.9959 3.00055 14.3471 3.00055 12.3133C3.00055 10.2795 4.65355 8.63082 6.69265 8.63082L6.7726 8.63082C7.03553 6.08134 8.83146 4.00069 12 4.00069ZM12 5.49828C9.92867 5.49828 8.12329 7.13153 8.12329 9.3875C8.12329 9.74496 7.80434 10.0254 7.43912 10.0254L6.74857 10.0254C5.48758 10.0254 4.46534 11.0267 4.46534 12.2619C4.46534 13.497 5.48758 14.4983 6.74857 14.4983H17.2514C18.5124 14.4983 19.5346 13.497 19.5346 12.2619C19.5346 11.0267 18.5124 10.0254 17.2514 10.0254L16.5609 10.0254C16.1957 10.0254 15.8767 9.74496 15.8767 9.3875C15.8767 7.10259 14.0713 5.49828 12 5.49828Z"/>
</svg>
