<svg width="24" height="24" viewBox="0 0 24 24" xmlns="http://www.w3.org/2000/svg">
<path d="M13.0011 6.0175C16.1697 6.0175 17.9671 8.11479 18.2285 10.6476L18.3085 10.6476C20.3476 10.6476 22.0006 12.2963 22.0006 14.3301C22.0006 16.364 20.3476 18.0127 18.3085 18.0127L17.6718 18.0126L16.1362 20.6252C15.9291 20.9839 15.4704 21.1068 15.1117 20.8997C14.7829 20.7099 14.6522 20.3086 14.7922 19.9667L14.8372 19.8752L15.9398 18.0126H13.8038L12.268 20.6252C12.0609 20.9839 11.6022 21.1068 11.2435 20.8997C10.9147 20.7099 10.784 20.3086 10.924 19.9667L10.969 19.8752L12.0718 18.0126H9.93482L8.39979 20.6252C8.19268 20.9839 7.73399 21.1068 7.37527 20.8997C7.04645 20.7099 6.91577 20.3086 7.0558 19.9667L7.10075 19.8752L8.20282 18.0126L7.69377 18.0127C5.65469 18.0127 4.00169 16.364 4.00169 14.3301C4.00169 12.2963 5.65469 10.6476 7.6938 10.6476L7.77374 10.6476C8.03668 8.09814 9.83261 6.0175 13.0011 6.0175ZM13.0011 7.51509C10.9298 7.51509 9.12443 9.14833 9.12443 11.4043C9.12443 11.7618 8.80548 12.0423 8.44027 12.0422L7.74971 12.0422C6.48872 12.0422 5.46648 13.0435 5.46648 14.2787C5.46648 15.5138 6.48872 16.5151 7.74971 16.5151H18.2526C19.5136 16.5151 20.5358 15.5138 20.5358 14.2787C20.5358 13.0435 19.5136 12.0422 18.2526 12.0422L17.562 12.0422C17.1968 12.0423 16.8779 11.7618 16.8779 11.4043C16.8779 9.11939 15.0725 7.51509 13.0011 7.51509ZM6.58841 2.00971C7.38344 2.05236 8.15541 2.28148 8.8515 2.68337C9.90606 3.29222 10.6596 4.22227 11.0598 5.27859C10.5593 5.41946 10.0967 5.61631 9.67387 5.86259C9.39827 5.09751 8.86043 4.42226 8.10077 3.98367C7.90271 3.86933 7.69623 3.77483 7.48351 3.70081C7.64403 5.05244 7.43598 6.21403 6.86103 7.31155L6.74308 7.52458C6.17217 8.50099 5.31116 9.23233 4.02483 9.82902C4.18036 9.95809 4.3475 10.0744 4.52506 10.177C4.70986 10.2837 4.90024 10.372 5.09406 10.4425C4.64378 10.7442 4.24926 11.1238 3.92875 11.5616L3.7743 11.4773C3.11679 11.0976 2.55862 10.5821 2.13217 9.96293C1.85268 9.55701 2.0335 8.9964 2.49753 8.83035C4.13995 8.24251 5.02487 7.58096 5.53098 6.61479C6.08372 5.5597 6.18583 4.44072 5.81886 2.93734C5.69955 2.44834 6.0858 1.98274 6.58841 2.00971Z"/>
</svg>
