<svg width="24" height="24" viewBox="0 0 24 24" xmlns="http://www.w3.org/2000/svg">
<path d="M10.75 20.0032C11.1642 20.0032 11.5 20.339 11.5 20.7532C11.5 21.1675 11.1642 21.5032 10.75 21.5032C10.3358 21.5032 10 21.1675 10 20.7532C10 20.339 10.3358 20.0032 10.75 20.0032ZM15.25 20.0032C15.6642 20.0032 16 20.339 16 20.7532C16 21.1675 15.6642 21.5032 15.25 21.5032C14.8358 21.5032 14.5 21.1675 14.5 20.7532C14.5 20.339 14.8358 20.0032 15.25 20.0032ZM8.50002 19.0032C8.91423 19.0032 9.25002 19.339 9.25002 19.7532C9.25002 20.1675 8.91423 20.5032 8.50002 20.5032C8.0858 20.5032 7.75002 20.1675 7.75002 19.7532C7.75002 19.339 8.0858 19.0032 8.50002 19.0032ZM13 19.0032C13.4142 19.0032 13.75 19.339 13.75 19.7532C13.75 20.1675 13.4142 20.5032 13 20.5032C12.5858 20.5032 12.25 20.1675 12.25 19.7532C12.25 19.339 12.5858 19.0032 13 19.0032ZM17.5 19.0032C17.9142 19.0032 18.25 19.339 18.25 19.7532C18.25 20.1675 17.9142 20.5032 17.5 20.5032C17.0858 20.5032 16.75 20.1675 16.75 19.7532C16.75 19.339 17.0858 19.0032 17.5 19.0032ZM13.0011 6.0175C16.1697 6.0175 17.9671 8.11479 18.2285 10.6476L18.3085 10.6476C20.3476 10.6476 22.0006 12.2963 22.0006 14.3301C22.0006 16.364 20.3476 18.0127 18.3085 18.0127H7.69377C5.65469 18.0127 4.00169 16.364 4.00169 14.3301C4.00169 12.2963 5.65469 10.6476 7.6938 10.6476L7.77374 10.6476C8.03668 8.09814 9.83261 6.0175 13.0011 6.0175ZM13.0011 7.51509C10.9298 7.51509 9.12443 9.14833 9.12443 11.4043C9.12443 11.7618 8.80548 12.0423 8.44027 12.0422L7.74971 12.0422C6.48872 12.0422 5.46648 13.0435 5.46648 14.2787C5.46648 15.5138 6.48872 16.5151 7.74971 16.5151H18.2526C19.5136 16.5151 20.5358 15.5138 20.5358 14.2787C20.5358 13.0435 19.5136 12.0422 18.2526 12.0422L17.562 12.0422C17.1968 12.0423 16.8779 11.7618 16.8779 11.4043C16.8779 9.11939 15.0725 7.51509 13.0011 7.51509ZM6.58841 2.00971C7.38344 2.05236 8.15541 2.28148 8.8515 2.68337C9.90606 3.29222 10.6596 4.22227 11.0598 5.27859C10.5593 5.41946 10.0967 5.61631 9.67387 5.86259C9.39827 5.09751 8.86043 4.42226 8.10077 3.98367C7.90271 3.86933 7.69623 3.77483 7.48351 3.70081C7.64403 5.05244 7.43598 6.21403 6.86103 7.31155L6.74308 7.52458C6.17217 8.50099 5.31116 9.23233 4.02483 9.82902C4.18036 9.95809 4.3475 10.0744 4.52506 10.177C4.70986 10.2837 4.90024 10.372 5.09406 10.4425C4.64378 10.7442 4.24926 11.1238 3.92875 11.5616L3.7743 11.4773C3.11679 11.0976 2.55862 10.5821 2.13217 9.96293C1.85268 9.55701 2.0335 8.9964 2.49753 8.83035C4.13995 8.24251 5.02487 7.58096 5.53098 6.61479C6.08372 5.5597 6.18583 4.44072 5.81886 2.93734C5.69955 2.44834 6.0858 1.98274 6.58841 2.00971Z"/>
</svg>
