<svg width="24" height="24" viewBox="0 0 24 24" xmlns="http://www.w3.org/2000/svg">
<path d="M9.75 18.1513C10.1642 18.1513 10.5 18.487 10.5 18.9013C10.5 19.3155 10.1642 19.6513 9.75 19.6513C9.33578 19.6513 9 19.3155 9 18.9013C9 18.487 9.33578 18.1513 9.75 18.1513ZM14.25 18.1513C14.6642 18.1513 15 18.487 15 18.9013C15 19.3155 14.6642 19.6513 14.25 19.6513C13.8358 19.6513 13.5 19.3155 13.5 18.9013C13.5 18.487 13.8358 18.1513 14.25 18.1513ZM7.5 17.1513C7.91421 17.1513 8.25 17.487 8.25 17.9013C8.25 18.3155 7.91421 18.6513 7.5 18.6513C7.08578 18.6513 6.75 18.3155 6.75 17.9013C6.75 17.487 7.08578 17.1513 7.5 17.1513ZM12 17.1513C12.4142 17.1513 12.75 17.487 12.75 17.9013C12.75 18.3155 12.4142 18.6513 12 18.6513C11.5858 18.6513 11.25 18.3155 11.25 17.9013C11.25 17.487 11.5858 17.1513 12 17.1513ZM16.5 17.1513C16.9142 17.1513 17.25 17.487 17.25 17.9013C17.25 18.3155 16.9142 18.6513 16.5 18.6513C16.0858 18.6513 15.75 18.3155 15.75 17.9013C15.75 17.487 16.0858 17.1513 16.5 17.1513ZM12 4.00069C15.1685 4.00069 16.966 6.09798 17.2274 8.63082L17.3074 8.63082C19.3464 8.63082 20.9994 10.2795 20.9994 12.3133C20.9994 14.3471 19.3464 15.9959 17.3074 15.9959H6.69263C4.65355 15.9959 3.00055 14.3471 3.00055 12.3133C3.00055 10.2795 4.65355 8.63082 6.69265 8.63082L6.7726 8.63082C7.03553 6.08134 8.83146 4.00069 12 4.00069ZM12 5.49828C9.92867 5.49828 8.12329 7.13153 8.12329 9.3875C8.12329 9.74496 7.80434 10.0254 7.43912 10.0254L6.74857 10.0254C5.48758 10.0254 4.46534 11.0267 4.46534 12.2619C4.46534 13.497 5.48758 14.4983 6.74857 14.4983H17.2514C18.5124 14.4983 19.5346 13.497 19.5346 12.2619C19.5346 11.0267 18.5124 10.0254 17.2514 10.0254L16.5609 10.0254C16.1957 10.0254 15.8767 9.74496 15.8767 9.3875C15.8767 7.10259 14.0713 5.49828 12 5.49828Z"/>
</svg>
